<mxfile host="app.diagrams.net" modified="2024-07-05T21:25:57.475Z" agent="Mozilla/5.0 (Windows NT 10.0; Win64; x64; rv:126.0) Gecko/20100101 Firefox/126.0" etag="m93xtlze6cB60H4QIGNz" version="24.6.4" type="device">
  <diagram name="Page-1" id="cNMyK32hMcJkqCzCWXZv">
    <mxGraphModel dx="1050" dy="538" grid="1" gridSize="10" guides="1" tooltips="1" connect="1" arrows="1" fold="1" page="1" pageScale="1" pageWidth="850" pageHeight="1100" math="0" shadow="0">
      <root>
        <mxCell id="0" />
        <mxCell id="1" parent="0" />
        <mxCell id="Dh4kqc2qDz02ezlNPedp-15" style="edgeStyle=orthogonalEdgeStyle;rounded=0;orthogonalLoop=1;jettySize=auto;html=1;entryX=0;entryY=0.5;entryDx=0;entryDy=0;" edge="1" parent="1" source="Dh4kqc2qDz02ezlNPedp-1" target="Dh4kqc2qDz02ezlNPedp-2">
          <mxGeometry relative="1" as="geometry" />
        </mxCell>
        <mxCell id="Dh4kqc2qDz02ezlNPedp-1" value="" style="rounded=0;whiteSpace=wrap;html=1;" vertex="1" parent="1">
          <mxGeometry x="140" y="120" width="130" height="140" as="geometry" />
        </mxCell>
        <mxCell id="Dh4kqc2qDz02ezlNPedp-2" value="&lt;div&gt;Uređaj 1&lt;/div&gt;&lt;div&gt;&lt;br&gt;&lt;/div&gt;&lt;div&gt;Uređaj 2&lt;/div&gt;&lt;div&gt;&lt;br&gt;&lt;/div&gt;&lt;div&gt;Uređaj 3&lt;/div&gt;&lt;div&gt;&lt;br&gt;&lt;/div&gt;&lt;div&gt;Uređaj 4&lt;br&gt;&lt;/div&gt;" style="rounded=0;whiteSpace=wrap;html=1;" vertex="1" parent="1">
          <mxGeometry x="330" y="120" width="150" height="140" as="geometry" />
        </mxCell>
        <mxCell id="Dh4kqc2qDz02ezlNPedp-3" value="Pravilo alarma" style="text;html=1;align=center;verticalAlign=middle;whiteSpace=wrap;rounded=0;fontStyle=1" vertex="1" parent="1">
          <mxGeometry x="162.5" y="90" width="85" height="30" as="geometry" />
        </mxCell>
        <mxCell id="Dh4kqc2qDz02ezlNPedp-5" value="tip = ESP32" style="rounded=1;whiteSpace=wrap;html=1;fillColor=#e1d5e7;strokeColor=#9673a6;" vertex="1" parent="1">
          <mxGeometry x="165" y="212.5" width="80" height="30" as="geometry" />
        </mxCell>
        <mxCell id="Dh4kqc2qDz02ezlNPedp-6" value="&#xa;&lt;div&gt;Upit za temperaturu&lt;br&gt;&lt;/div&gt;&lt;div&gt;&lt;br&gt;&lt;/div&gt;&lt;div&gt;Temperatura &amp;gt; 25°C&lt;/div&gt;&#xa;&#xa;" style="text;html=1;align=center;verticalAlign=middle;whiteSpace=wrap;rounded=0;" vertex="1" parent="1">
          <mxGeometry x="130" y="155" width="150" height="50" as="geometry" />
        </mxCell>
        <mxCell id="Dh4kqc2qDz02ezlNPedp-7" value="Instance uređaja" style="text;html=1;align=center;verticalAlign=middle;whiteSpace=wrap;rounded=0;fontStyle=1" vertex="1" parent="1">
          <mxGeometry x="320" y="90" width="170" height="30" as="geometry" />
        </mxCell>
        <mxCell id="Dh4kqc2qDz02ezlNPedp-22" style="edgeStyle=orthogonalEdgeStyle;rounded=0;orthogonalLoop=1;jettySize=auto;html=1;entryX=1;entryY=0.5;entryDx=0;entryDy=0;" edge="1" parent="1" source="Dh4kqc2qDz02ezlNPedp-9" target="Dh4kqc2qDz02ezlNPedp-13">
          <mxGeometry relative="1" as="geometry">
            <Array as="points">
              <mxPoint x="740" y="153" />
              <mxPoint x="740" y="240" />
            </Array>
          </mxGeometry>
        </mxCell>
        <mxCell id="Dh4kqc2qDz02ezlNPedp-9" value="" style="rounded=0;whiteSpace=wrap;html=1;" vertex="1" parent="1">
          <mxGeometry x="550" y="120" width="170" height="65" as="geometry" />
        </mxCell>
        <mxCell id="Dh4kqc2qDz02ezlNPedp-10" value="Notifikacijska politika" style="text;html=1;align=center;verticalAlign=middle;whiteSpace=wrap;rounded=0;fontStyle=1" vertex="1" parent="1">
          <mxGeometry x="560" y="90" width="140" height="30" as="geometry" />
        </mxCell>
        <mxCell id="Dh4kqc2qDz02ezlNPedp-11" value="AKO" style="text;html=1;align=center;verticalAlign=middle;whiteSpace=wrap;rounded=0;" vertex="1" parent="1">
          <mxGeometry x="560" y="137.5" width="60" height="30" as="geometry" />
        </mxCell>
        <mxCell id="Dh4kqc2qDz02ezlNPedp-12" value="tip = ESP32" style="rounded=1;whiteSpace=wrap;html=1;fillColor=#e1d5e7;strokeColor=#9673a6;" vertex="1" parent="1">
          <mxGeometry x="620" y="137.5" width="80" height="30" as="geometry" />
        </mxCell>
        <mxCell id="Dh4kqc2qDz02ezlNPedp-13" value="" style="rounded=0;whiteSpace=wrap;html=1;" vertex="1" parent="1">
          <mxGeometry x="585" y="220" width="100" height="40" as="geometry" />
        </mxCell>
        <mxCell id="Dh4kqc2qDz02ezlNPedp-14" value="Kontakt točka" style="text;html=1;align=center;verticalAlign=middle;whiteSpace=wrap;rounded=0;fontStyle=1" vertex="1" parent="1">
          <mxGeometry x="580" y="190" width="100" height="30" as="geometry" />
        </mxCell>
        <mxCell id="Dh4kqc2qDz02ezlNPedp-16" value="" style="verticalLabelPosition=bottom;verticalAlign=top;html=1;shape=mxgraph.basic.tick;fillColor=#d5e8d4;strokeColor=#82b366;" vertex="1" parent="1">
          <mxGeometry x="430" y="230" width="10" height="10" as="geometry" />
        </mxCell>
        <mxCell id="Dh4kqc2qDz02ezlNPedp-18" value="" style="verticalLabelPosition=bottom;verticalAlign=top;html=1;shape=mxgraph.basic.tick;fillColor=#d5e8d4;strokeColor=#82b366;" vertex="1" parent="1">
          <mxGeometry x="430" y="200" width="10" height="10" as="geometry" />
        </mxCell>
        <mxCell id="Dh4kqc2qDz02ezlNPedp-19" value="" style="verticalLabelPosition=bottom;verticalAlign=top;html=1;shape=mxgraph.basic.tick;fillColor=#d5e8d4;strokeColor=#82b366;" vertex="1" parent="1">
          <mxGeometry x="430" y="167.5" width="10" height="10" as="geometry" />
        </mxCell>
        <mxCell id="Dh4kqc2qDz02ezlNPedp-21" style="edgeStyle=orthogonalEdgeStyle;rounded=0;orthogonalLoop=1;jettySize=auto;html=1;" edge="1" parent="1" source="Dh4kqc2qDz02ezlNPedp-20">
          <mxGeometry relative="1" as="geometry">
            <mxPoint x="550" y="143" as="targetPoint" />
            <Array as="points">
              <mxPoint x="550" y="143" />
            </Array>
          </mxGeometry>
        </mxCell>
        <mxCell id="Dh4kqc2qDz02ezlNPedp-20" value="" style="verticalLabelPosition=bottom;verticalAlign=top;html=1;shape=mxgraph.basic.x;fillColor=#f8cecc;strokeColor=#b85450;" vertex="1" parent="1">
          <mxGeometry x="430" y="137.5" width="10" height="10" as="geometry" />
        </mxCell>
        <mxCell id="Dh4kqc2qDz02ezlNPedp-23" value="" style="shape=message;html=1;html=1;outlineConnect=0;labelPosition=center;verticalLabelPosition=bottom;align=center;verticalAlign=top;fillColor=#fff2cc;strokeColor=#d6b656;" vertex="1" parent="1">
          <mxGeometry x="620" y="230" width="30" height="20" as="geometry" />
        </mxCell>
      </root>
    </mxGraphModel>
  </diagram>
</mxfile>
